Coordinates
version=1
nRows=26
nColumns=27
inDegrees=yes

Units are S.I. units (second, meters, Newtons, ...)
If the header above contains a line with 'inDegrees', this indicates whether rotational values are in degrees (yes) or radians (no).

endheader
time	pelvis_rotation	pelvis_tilt	pelvis_list	pelvis_tx	pelvis_ty	pelvis_tz	hip_flexion_r	hip_adduction_r	hip_rotation_r	knee_angle_r	knee_rotation_r	knee_adduction_r	knee_angle_r_beta	ankle_angle_r	subtalar_angle_r	mtp_angle_r	hip_flexion_l	hip_adduction_l	hip_rotation_l	knee_angle_l	knee_rotation_l	knee_adduction_l	knee_angle_l_beta	ankle_angle_l	subtalar_angle_l	mtp_angle_l
     16.92500000	      7.70921478	    -42.56830614	      6.71958605	     -0.10860356	      0.77188308	     -1.20909260	     96.68063543	    -16.27515783	     -9.66790859	     64.75023908	     -8.45576188	      9.27904393	      1.13010486	      5.52305052	     -8.68806649	      0.00000000	     93.93508136	     -6.86960002	    -14.44671019	     59.77176485	     -8.89356685	     -9.60792276	      1.04321410	      4.54570956	      3.09325387	      0.00000000
     16.93000000	      7.71012224	    -42.53829168	      6.69294914	     -0.10874691	      0.77242195	     -1.20925766	     96.53851606	    -16.32584050	     -9.74860302	     64.58380907	     -8.42081941	      9.27928244	      1.12720011	      5.51959460	     -8.59296618	      0.00000000	     93.82988167	     -6.86736379	    -14.46140357	     59.63225147	     -8.86853886	     -9.60751023	      1.04077913	      4.49661058	      3.15876613	      0.00000000
     16.93500000	      7.63330768	    -42.90602843	      6.69929892	     -0.10991575	      0.77177458	     -1.20911729	     97.04685908	    -16.23685478	     -8.89845141	     64.72882106	     -7.71135060	      8.73578567	      1.12973105	      5.51318749	     -8.53436558	      0.00000000	     94.31841014	     -7.08579358	    -13.89312082	     59.82540536	     -8.23193958	     -9.27504779	      1.04415030	      4.45416310	      3.03344070	      0.00000000
     16.94000000	      7.31337872	    -42.42665651	      6.33710101	     -0.10897657	      0.77343178	     -1.20928730	     96.12526215	    -16.04652028	     -9.95006080	     64.19549165	     -8.36772012	      9.28019909	      1.12042269	      5.38763640	     -8.57269255	      0.00000000	     93.57672531	     -7.23486134	    -14.49468144	     59.45718707	     -8.81823563	     -9.60972195	      1.03772368	      4.46762435	      3.37872448	      0.00000000
     16.94500000	      7.78917976	    -42.44734693	      6.56371152	     -0.10916819	      0.77375577	     -1.20979286	     96.14200342	    -16.55106149	    -10.09276781	     64.17793452	     -8.33198095	      9.29255967	      1.12011626	      5.46568077	     -8.36941084	      0.00000000	     93.58604387	     -6.76871446	    -14.36011101	     59.28837423	     -8.78630214	     -9.60732062	      1.03477734	      4.32774496	      3.20833012	      0.00000000
     16.95000000	      7.75794017	    -42.38507787	      6.71696707	     -0.10927827	      0.77408214	     -1.20996078	     96.10183901	    -16.55131285	     -9.90060773	     64.11146738	     -8.27385385	      9.28902427	      1.11895619	      5.42733032	     -8.34104614	      0.00000000	     93.41896899	     -6.80364770	    -14.60888062	     59.17417655	     -8.79100612	     -9.60951436	      1.03278421	      4.31444291	      3.29725278	      0.00000000
     16.95500000	      7.76305531	    -42.34195439	      6.63884904	     -0.10938662	      0.77439987	     -1.21010245	     95.96821128	    -16.60222735	    -10.02936178	     64.00578840	     -8.26241734	      9.29056387	      1.11711175	      5.42294334	     -8.24684970	      0.00000000	     93.35235659	     -6.78283296	    -14.54662255	     59.10322670	     -8.77459907	     -9.60960943	      1.03154590	      4.26282413	      3.27729258	      0.00000000
     16.96000000	      7.73109288	    -42.30068973	      6.64909818	     -0.10952036	      0.77466206	     -1.21019289	     95.89923880	    -16.60181858	    -10.00244606	     63.93361622	     -8.22050711	      9.29610628	      1.11585211	      5.35253797	     -8.27961953	      0.00000000	     93.26495576	     -6.80297332	    -14.60193675	     59.03195625	     -8.76333651	     -9.60952082	      1.03030200	      4.20654773	      3.26966752	      0.00000000
     16.96500000	      6.94679685	    -42.55895145	      5.95225549	     -0.11037854	      0.77407092	     -1.20944368	     96.03857960	    -15.85377082	     -9.49400184	     63.89827175	     -7.63979930	      8.76430114	      1.11523523	      5.29749053	     -8.32515579	      0.00000000	     93.68747463	     -7.68406112	    -13.87718556	     59.41581923	     -8.14103284	     -9.29062600	      1.03700167	      4.32424974	      3.36490697	      0.00000000
     16.97000000	      7.69980528	    -42.23535751	      6.48026736	     -0.10959639	      0.77518378	     -1.21040373	     95.67524602	    -16.65462027	    -10.26882490	     63.76458069	     -8.23600705	      9.30121845	      1.11290188	      5.34285540	     -8.09051991	      0.00000000	     93.16747268	     -6.80696215	    -14.50717002	     58.95047413	     -8.77555521	     -9.60603167	      1.02887987	      4.21028228	      3.39051006	      0.00000000
     16.97500000	      7.57132232	    -42.18864302	      6.60046239	     -0.10972266	      0.77535837	     -1.21044604	     95.68022210	    -16.53292999	    -10.01477069	     63.71907738	     -8.20072065	      9.28992055	      1.11210770	      5.26554687	     -8.14625050	      0.00000000	     93.03531750	     -6.92363200	    -14.78272062	     58.88314097	     -8.79895163	     -9.60651216	      1.02770468	      4.17474997	      3.45134006	      0.00000000
     16.98000000	      7.47272068	    -42.13134283	      6.55179912	     -0.10974735	      0.77558586	     -1.21048201	     95.58095494	    -16.47631516	    -10.02454918	     63.65621260	     -8.18884486	      9.29677582	      1.11101050	      5.24366703	     -8.08160420	      0.00000000	     92.93573803	     -7.00162251	    -14.84180639	     58.85089432	     -8.81381525	     -9.60098473	      1.02714187	      4.21618105	      3.55945171	      0.00000000
     16.98500000	      6.87993076	    -42.06551315	      6.00101048	     -0.10972565	      0.77595780	     -1.21009637	     95.26407552	    -15.93522112	    -10.22835443	     63.40469290	     -8.20135945	      9.29984614	      1.10662065	      5.09115451	     -8.27757718	      0.00000000	     92.85406275	     -7.55043854	    -14.73635634	     58.92214289	     -8.78360432	     -9.60687577	      1.02838540	      4.26491980	      3.65274910	      0.00000000
     16.99000000	      7.44938843	    -42.10857869	      6.43428475	     -0.10982697	      0.77605554	     -1.21064567	     95.44622015	    -16.50948913	    -10.23276394	     63.51778859	     -8.21874459	      9.29723500	      1.10859454	      5.18532036	     -7.95573862	      0.00000000	     92.88344132	     -6.98128513	    -14.77074488	     58.77212423	     -8.83829517	     -9.59656855	      1.02576708	      4.14839604	      3.55374692	      0.00000000
     16.99500000	      7.35271050	    -42.48543495	      6.38089160	     -0.11088326	      0.77520009	     -1.21038526	     95.98716674	    -16.39080245	     -9.41679543	     63.73089495	     -7.53507412	      8.77482360	      1.11231395	      5.16988670	     -7.96640927	      0.00000000	     93.43596066	     -7.19929810	    -14.11910634	     59.05590092	     -8.23360317	     -9.25153490	      1.03071991	      4.17578679	      3.44335123	      0.00000000
     17.00000000	      7.44178579	    -42.06541471	      6.39304003	     -0.10991401	      0.77654004	     -1.21074268	     95.32026267	    -16.54531899	    -10.31871090	     63.39878517	     -8.20053430	      9.30673520	      1.10651754	      5.13654758	     -7.87711686	      0.00000000	     92.78698980	     -6.95871590	    -14.75269191	     58.67398072	     -8.84098530	     -9.59172314	      1.02405415	      4.08745704	      3.59570373	      0.00000000
     17.00500000	      7.39659598	    -42.03122967	      6.36412528	     -0.10994421	      0.77683381	     -1.21077355	     95.24003684	    -16.52305329	    -10.36172550	     63.32202646	     -8.20644382	      9.30818980	      1.10517785	      5.08489635	     -7.84393500	      0.00000000	     92.70704416	     -6.98587045	    -14.79347235	     58.61299660	     -8.86145495	     -9.58766716	      1.02298978	      4.10082488	      3.65275377	      0.00000000
     17.01000000	      6.58645125	    -42.30010977	      5.59038051	     -0.11081515	      0.77637175	     -1.20986992	     95.34784455	    -15.71382543	     -9.92861891	     63.23677543	     -7.66315761	      8.77260412	      1.10368994	      4.95931215	     -7.93738550	      0.00000000	     93.14586681	     -7.87964580	    -13.98446455	     58.97969987	     -8.24355976	     -9.24689551	      1.02938995	      4.14722547	      3.74865227	      0.00000000
     17.01500000	      7.37835342	    -42.01917758	      6.34713109	     -0.11005042	      0.77743632	     -1.21079588	     95.14417359	    -16.52048402	    -10.42638214	     63.17621260	     -8.21192617	      9.30814901	      1.10263292	      5.01473812	     -7.77702663	      0.00000000	     92.61175171	     -6.99466427	    -14.82883111	     58.47688788	     -8.85844646	     -9.58381400	      1.02061423	      4.03598101	      3.72151793	      0.00000000
     17.02000000	      7.29120481	    -41.97615965	      6.39945555	     -0.11009395	      0.77777024	     -1.21075664	     95.09115895	    -16.43652545	    -10.31208432	     63.10313991	     -8.19425055	      9.30660342	      1.10135756	      4.93933787	     -7.80191864	      0.00000000	     92.48031811	     -7.08535454	    -15.00912619	     58.39081704	     -8.86764539	     -9.58327953	      1.01911201	      4.03916761	      3.80591307	      0.00000000
     17.02500000	      7.34521409	    -41.98176741	      6.37641835	     -0.11013499	      0.77816013	     -1.21076144	     95.02361484	    -16.48815241	    -10.42233803	     63.01185556	     -8.21036774	      9.30344019	      1.09976435	      4.92774030	     -7.73191931	      0.00000000	     92.44281677	     -7.04261234	    -14.96773215	     58.29158390	     -8.85046026	     -9.58343339	      1.01738007	      3.98774601	      3.85173136	      0.00000000
     17.03000000	      7.36137309	    -42.38592588	      6.31184498	     -0.11122608	      0.77745673	     -1.21049832	     95.55004045	    -16.46605129	     -9.72205669	     63.19205397	     -7.53981110	      8.78544021	      1.10290940	      4.88466559	     -7.73966657	      0.00000000	     93.02377467	     -7.16723378	    -14.22533233	     58.52418339	     -8.23776670	     -9.22030620	      1.02143969	      3.96534906	      3.70816290	      0.00000000
     17.03500000	      7.43140393	    -41.97137893	      6.33745784	     -0.11025840	      0.77895034	     -1.21075611	     94.87365684	    -16.57702481	    -10.59430067	     62.82736431	     -8.20054317	      9.30948217	      1.09654437	      4.82905291	     -7.67903034	      0.00000000	     92.33571072	     -6.98074934	    -14.91914643	     58.08417794	     -8.81830270	     -9.57704840	      1.01376015	      3.89109533	      3.91114694	      0.00000000
     17.04000000	      7.50212144	    -41.95204942	      6.38116123	     -0.11029191	      0.77941153	     -1.21075911	     94.79755888	    -16.64162129	    -10.63831920	     62.72868905	     -8.20186925	      9.31224400	      1.09482216	      4.78684221	     -7.63251994	      0.00000000	     92.24187082	     -6.92930204	    -14.96675670	     57.95421992	     -8.81384543	     -9.57679142	      1.01149195	      3.85755015	      3.96151651	      0.00000000
     17.04500000	      7.54650292	    -41.94992072	      6.40500024	     -0.11037546	      0.77986688	     -1.21073096	     94.73748698	    -16.67978391	    -10.66951687	     62.62660619	     -8.18844966	      9.31318558	      1.09304048	      4.71737430	     -7.59102221	      0.00000000	     92.16882688	     -6.91223607	    -15.00174584	     57.82542373	     -8.78992172	     -9.57669452	      1.00924404	      3.80820310	      4.01260698	      0.00000000
     17.05000000	      7.63085176	    -41.93173568	      6.38448492	     -0.11041390	      0.78035905	     -1.21069735	     94.62623263	    -16.74994897	    -10.80746788	     62.51432453	     -8.21038155	      9.31195592	      1.09108079	      4.69121703	     -7.53614753	      0.00000000	     92.08665554	     -6.85336598	    -14.95349070	     57.68392684	     -8.76166286	     -9.57739902	      1.00677445	      3.74742746	      4.04701363	      0.00000000
